<svg data-v-fde0c5aa="" xmlns="http://www.w3.org/2000/svg" viewBox="0 0 300 300" class="font"><!----><defs data-v-fde0c5aa=""><!----></defs><rect data-v-fde0c5aa="" fill="transparent" x="0" y="0" width="300px" height="300px" class="logo-background-square"></rect><defs data-v-fde0c5aa=""><linearGradient data-v-fde0c5aa="" gradientTransform="rotate(25)" id="4a957910-8224-40d7-9766-0bcd9012e041" x1="0%" y1="0%" x2="100%" y2="0%"><stop data-v-fde0c5aa="" offset="0%" stop-color="#0d0" stop-opacity="1"></stop><stop data-v-fde0c5aa="" offset="100%" stop-color="#999999" stop-opacity="1"></stop></linearGradient></defs><g data-v-fde0c5aa="" id="be805825-3608-4085-9e5c-c53357601daf" fill="url(#4a957910-8224-40d7-9766-0bcd9012e041)" transform="matrix(3.451521635055542,0,0,3.451521635055542,37.238782585691986,121.14527881252918)"><path d="M4.45 6.40L4.45 6.40Q5.45 6.40 6.16 6.89L6.16 6.89L6.16 6.89Q6.87 7.38 7.24 8.20L7.24 8.20L7.24 8.20Q7.60 9.03 7.60 10.02L7.60 10.02L7.60 10.02Q7.60 11.02 7.24 11.84L7.24 11.84L7.24 11.84Q6.87 12.67 6.16 13.16L6.16 13.16L6.16 13.16Q5.45 13.65 4.45 13.65L4.45 13.65L4.45 13.65Q3.35 13.65 2.45 13.05L2.45 13.05L2.42 13.51L0.80 13.51L0.80 3.01L2.53 3.01L2.53 7.03L2.53 7.03Q3.39 6.40 4.45 6.40L4.45 6.40ZM4.20 12.22L4.20 12.22Q4.97 12.22 5.40 11.62L5.40 11.62L5.40 11.62Q5.82 11.02 5.82 10.02L5.82 10.02L5.82 10.02Q5.82 9.03 5.40 8.43L5.40 8.43L5.40 8.43Q4.97 7.83 4.20 7.83L4.20 7.83L4.20 7.83Q3.32 7.83 2.88 8.41L2.88 8.41L2.88 8.41Q2.45 9.00 2.45 10.02L2.45 10.02L2.45 10.02Q2.45 11.05 2.88 11.63L2.88 11.63L2.88 11.63Q3.32 12.22 4.20 12.22L4.20 12.22ZM10.32 13.65L10.32 13.65Q9.45 13.65 8.87 13.08L8.87 13.08L8.87 13.08Q8.29 12.52 8.29 11.55L8.29 11.55L8.29 11.55Q8.29 10.64 8.95 10.09L8.95 10.09L8.95 10.09Q9.60 9.53 10.50 9.30L10.50 9.30L10.50 9.30Q11.40 9.07 12.22 9.04L12.22 9.04L12.22 9.04Q12.19 8.43 11.91 8.16L11.91 8.16L11.91 8.16Q11.62 7.90 10.96 7.90L10.96 7.90L10.96 7.90Q10.50 7.90 10.06 8.02L10.06 8.02L10.06 8.02Q9.62 8.15 9.04 8.43L9.04 8.43L8.89 7.01L8.89 7.01Q10.16 6.40 11.44 6.40L11.44 6.40L11.44 6.40Q12.67 6.40 13.32 7.07L13.32 7.07L13.32 7.07Q13.97 7.74 13.97 9.21L13.97 9.21L13.97 11.10L13.97 11.10Q13.97 11.63 14.02 11.87L14.02 11.87L14.02 11.87Q14.07 12.10 14.19 12.16L14.19 12.16L14.19 12.16Q14.31 12.22 14.59 12.22L14.59 12.22L14.81 12.22L14.66 13.65L14.03 13.65L14.03 13.65Q13.45 13.65 13.06 13.43L13.06 13.43L13.06 13.43Q12.67 13.22 12.46 12.84L12.46 12.84L12.46 12.84Q12.12 13.22 11.54 13.43L11.54 13.43L11.54 13.43Q10.96 13.65 10.32 13.65L10.32 13.65ZM11.05 12.32L11.05 12.32Q11.31 12.32 11.65 12.19L11.65 12.19L11.65 12.19Q11.98 12.05 12.24 11.82L12.24 11.82L12.24 10.22L12.24 10.22Q11.40 10.26 10.75 10.58L10.75 10.58L10.75 10.58Q10.11 10.91 10.11 11.48L10.11 11.48L10.11 11.48Q10.11 11.91 10.33 12.12L10.33 12.12L10.33 12.12Q10.56 12.32 11.05 12.32L11.05 12.32ZM17.77 13.65L17.77 13.65Q17.09 13.65 16.54 13.52L16.54 13.52L16.54 13.52Q15.99 13.40 15.40 13.13L15.40 13.13L15.55 11.65L15.55 11.65Q16.14 12.00 16.65 12.17L16.65 12.17L16.65 12.17Q17.16 12.35 17.71 12.35L17.71 12.35L17.71 12.35Q18.77 12.35 18.77 11.65L18.77 11.65L18.77 11.65Q18.77 11.27 18.49 11.07L18.49 11.07L18.49 11.07Q18.21 10.86 17.49 10.58L17.49 10.58L17.49 10.58Q16.45 10.21 15.96 9.72L15.96 9.72L15.96 9.72Q15.47 9.24 15.47 8.41L15.47 8.41L15.47 8.41Q15.47 7.50 16.17 6.94L16.17 6.94L16.17 6.94Q16.87 6.37 18.06 6.37L18.06 6.37L18.06 6.37Q19.25 6.37 20.23 6.92L20.23 6.92L20.08 8.40L20.08 8.40Q19.54 8.04 19.08 7.84L19.08 7.84L19.08 7.84Q18.61 7.64 18.09 7.64L18.09 7.64L18.09 7.64Q17.64 7.64 17.40 7.83L17.40 7.83L17.40 7.83Q17.15 8.01 17.15 8.34L17.15 8.34L17.15 8.34Q17.15 8.61 17.30 8.78L17.30 8.78L17.30 8.78Q17.44 8.95 17.71 9.08L17.71 9.08L17.71 9.08Q17.98 9.21 18.59 9.45L18.59 9.45L18.59 9.45Q19.61 9.84 20.06 10.31L20.06 10.31L20.06 10.31Q20.51 10.78 20.51 11.56L20.51 11.56L20.51 11.56Q20.51 12.56 19.80 13.10L19.80 13.10L19.80 13.10Q19.08 13.65 17.77 13.65L17.77 13.65ZM25.23 6.40L25.23 6.40Q26.56 6.40 27.21 7.26L27.21 7.26L27.21 7.26Q27.86 8.12 27.86 9.62L27.86 9.62L27.86 13.51L26.12 13.51L26.12 9.74L26.12 9.74Q26.12 8.75 25.80 8.29L25.80 8.29L25.80 8.29Q25.48 7.83 24.78 7.83L24.78 7.83L24.78 7.83Q23.95 7.83 23.42 8.43L23.42 8.43L23.42 13.51L21.69 13.51L21.69 3.01L23.42 3.01L23.42 6.96L23.42 6.96Q23.84 6.69 24.28 6.54L24.28 6.54L24.28 6.54Q24.71 6.40 25.23 6.40L25.23 6.40ZM31.58 13.51L31.58 5.45L28.81 5.45L28.81 3.71L36.15 3.71L36.15 5.45L33.38 5.45L33.38 13.51L31.58 13.51ZM41.68 13.71L41.68 13.71Q40.29 13.71 39.19 13.07L39.19 13.07L39.19 13.07Q38.09 12.43 37.47 11.28L37.47 11.28L37.47 11.28Q36.85 10.12 36.85 8.61L36.85 8.61L36.85 8.61Q36.85 7.10 37.47 5.94L37.47 5.94L37.47 5.94Q38.09 4.79 39.19 4.15L39.19 4.15L39.19 4.15Q40.29 3.51 41.68 3.51L41.68 3.51L41.68 3.51Q43.06 3.51 44.16 4.15L44.16 4.15L44.16 4.15Q45.26 4.79 45.89 5.94L45.89 5.94L45.89 5.94Q46.51 7.10 46.51 8.61L46.51 8.61L46.51 8.61Q46.51 10.12 45.89 11.28L45.89 11.28L45.89 11.28Q45.26 12.43 44.16 13.07L44.16 13.07L44.16 13.07Q43.06 13.71 41.68 13.71L41.68 13.71ZM41.68 11.97L41.68 11.97Q43.11 11.97 43.87 11.05L43.87 11.05L43.87 11.05Q44.63 10.12 44.63 8.61L44.63 8.61L44.63 8.61Q44.63 7.10 43.87 6.17L43.87 6.17L43.87 6.17Q43.11 5.25 41.68 5.25L41.68 5.25L41.68 5.25Q40.25 5.25 39.49 6.17L39.49 6.17L39.49 6.17Q38.72 7.10 38.72 8.61L38.72 8.61L38.72 8.61Q38.72 10.12 39.49 11.05L39.49 11.05L39.49 11.05Q40.25 11.97 41.68 11.97L41.68 11.97ZM52.32 13.71L52.32 13.71Q50.93 13.71 49.83 13.07L49.83 13.07L49.83 13.07Q48.73 12.43 48.11 11.28L48.11 11.28L48.11 11.28Q47.49 10.12 47.49 8.61L47.49 8.61L47.49 8.61Q47.49 7.10 48.11 5.94L48.11 5.94L48.11 5.94Q48.73 4.79 49.83 4.15L49.83 4.15L49.83 4.15Q50.93 3.51 52.32 3.51L52.32 3.51L52.32 3.51Q53.70 3.51 54.80 4.15L54.80 4.15L54.80 4.15Q55.90 4.79 56.53 5.94L56.53 5.94L56.53 5.94Q57.15 7.10 57.15 8.61L57.15 8.61L57.15 8.61Q57.15 10.12 56.53 11.28L56.53 11.28L56.53 11.28Q55.90 12.43 54.80 13.07L54.80 13.07L54.80 13.07Q53.70 13.71 52.32 13.71L52.32 13.71ZM52.32 11.97L52.32 11.97Q53.75 11.97 54.51 11.05L54.51 11.05L54.51 11.05Q55.27 10.12 55.27 8.61L55.27 8.61L55.27 8.61Q55.27 7.10 54.51 6.17L54.51 6.17L54.51 6.17Q53.75 5.25 52.32 5.25L52.32 5.25L52.32 5.25Q50.89 5.25 50.13 6.17L50.13 6.17L50.13 6.17Q49.36 7.10 49.36 8.61L49.36 8.61L49.36 8.61Q49.36 10.12 50.13 11.05L50.13 11.05L50.13 11.05Q50.89 11.97 52.32 11.97L52.32 11.97ZM58.72 13.51L58.72 3.71L60.51 3.71L60.51 11.91L64.54 11.91L64.54 13.51L58.72 13.51Z"></path></g><!----><!----></svg>